<svg width="16" height="16" viewBox="0 0 16 16" fill="none" xmlns="http://www.w3.org/2000/svg">
<rect width="16" height="16" fill="#E5E5E5"/>
<rect width="1440" height="6241" transform="translate(-974 -1973)" fill="#EFEFEF"/>
<rect x="-974" y="-1443" width="1440" height="1601" fill="#141414"/>
<rect x="-974" y="-13" width="1440" height="1945" fill="#141414"/>
<path d="M-244 -65C-244 -67.7614 -241.761 -70 -239 -70H28C30.7614 -70 33 -67.7614 33 -65V42H-244V-65Z" fill="#181818"/>
<path d="M5.33333 8C5.33333 7.50908 4.93536 7.11111 4.44444 7.11111V7.11111C3.95352 7.11111 3.55556 7.50908 3.55556 8V8C3.55556 8.49092 3.95352 8.88889 4.44444 8.88889V8.88889C4.93536 8.88889 5.33333 8.49092 5.33333 8V8ZM8.88889 11.5556C8.88889 11.0646 8.49092 10.6667 8 10.6667V10.6667C7.50908 10.6667 7.11111 11.0646 7.11111 11.5556V11.5556C7.11111 12.0465 7.50908 12.4444 8 12.4444V12.4444C8.49092 12.4444 8.88889 12.0465 8.88889 11.5556V11.5556ZM14.2222 13.2222C14.2222 13.7745 13.7745 14.2222 13.2222 14.2222H2.77778C2.22549 14.2222 1.77778 13.7745 1.77778 13.2222V2.77778C1.77778 2.22549 2.22549 1.77778 2.77778 1.77778H13.2222C13.7745 1.77778 14.2222 2.22549 14.2222 2.77778V13.2222ZM0 15C0 15.5523 0.447715 16 1 16H15C15.5523 16 16 15.5523 16 15V1C16 0.447715 15.5523 0 15 0H1C0.447715 0 0 0.447715 0 1V15ZM12.4444 8C12.4444 7.50908 12.0465 7.11111 11.5556 7.11111V7.11111C11.0646 7.11111 10.6667 7.50908 10.6667 8V8C10.6667 8.49092 11.0646 8.88889 11.5556 8.88889V8.88889C12.0465 8.88889 12.4444 8.49092 12.4444 8V8ZM8.88889 8C8.88889 7.50908 8.49092 7.11111 8 7.11111V7.11111C7.50908 7.11111 7.11111 7.50908 7.11111 8V8C7.11111 8.49092 7.50908 8.88889 8 8.88889V8.88889C8.49092 8.88889 8.88889 8.49092 8.88889 8V8ZM8.88889 4.44444C8.88889 3.95352 8.49092 3.55556 8 3.55556V3.55556C7.50908 3.55556 7.11111 3.95352 7.11111 4.44444V4.44444C7.11111 4.93536 7.50908 5.33333 8 5.33333V5.33333C8.49092 5.33333 8.88889 4.93536 8.88889 4.44444V4.44444Z" fill="#E20749"/>
</svg>
