<svg width="16" height="16" viewBox="0 0 16 16" fill="none" xmlns="http://www.w3.org/2000/svg">
<rect width="16" height="16" fill="#E5E5E5"/>
<rect width="1440" height="6241" transform="translate(-379 -1973)" fill="#EFEFEF"/>
<rect x="-379" y="-1443" width="1440" height="1601" fill="#141414"/>
<rect x="-379" y="-13" width="1440" height="1945" fill="#141414"/>
<path d="M-244 -65C-244 -67.7614 -241.761 -70 -239 -70H29C31.7614 -70 34 -67.7614 34 -65V42H-244V-65Z" fill="#181818"/>
<path d="M1.77778 0C0.791111 0 0 0.791111 0 1.77778V14.2222C0 15.2089 0.791111 16 1.77778 16H14.2222C15.2089 16 16 15.2089 16 14.2222V1.77778C16 0.791111 15.2089 0 14.2222 0H1.77778ZM1.77778 1.77778H14.2222V14.2222H1.77778V1.77778ZM3.55556 3.55556V5.33333H12.4444V3.55556H3.55556ZM3.55556 7.11111V8.88889H12.4444V7.11111H3.55556ZM3.55556 10.6667V12.4444H9.77778V10.6667H3.55556Z" fill="#E20749"/>
</svg>
