<svg width="16" height="16" viewBox="0 0 16 16" fill="none" xmlns="http://www.w3.org/2000/svg">
<rect width="16" height="16" fill="#E5E5E5"/>
<rect width="1440" height="6241" transform="translate(-1272 -1973)" fill="#EFEFEF"/>
<rect x="-1272" y="-1443" width="1440" height="1601" fill="#141414"/>
<rect x="-1272" y="-13" width="1440" height="1945" fill="#141414"/>
<path d="M-244 -63C-244 -65.7614 -241.761 -68 -239 -68H29C31.7614 -68 34 -65.7614 34 -63V44H-244V-63Z" fill="#181818"/>
<mask id="path-4-outside-1" maskUnits="userSpaceOnUse" x="3" y="3" width="10" height="10" fill="black">
<rect fill="white" x="3" y="3" width="10" height="10"/>
<path d="M8.04 10.7793L8 10.8229L7.956 10.7793C6.056 8.90027 4.8 7.65777 4.8 6.39782C4.8 5.52589 5.4 4.87193 6.2 4.87193C6.816 4.87193 7.416 5.3079 7.628 5.90082H8.372C8.584 5.3079 9.184 4.87193 9.8 4.87193C10.6 4.87193 11.2 5.52589 11.2 6.39782C11.2 7.65777 9.944 8.90027 8.04 10.7793ZM9.8 4C9.104 4 8.436 4.35313 8 4.90681C7.564 4.35313 6.896 4 6.2 4C4.968 4 4 5.05068 4 6.39782C4 8.04142 5.36 9.38856 7.42 11.4245L8 12L8.58 11.4245C10.64 9.38856 12 8.04142 12 6.39782C12 5.05068 11.032 4 9.8 4Z"/>
</mask>
<path d="M8.04 10.7793L8 10.8229L7.956 10.7793C6.056 8.90027 4.8 7.65777 4.8 6.39782C4.8 5.52589 5.4 4.87193 6.2 4.87193C6.816 4.87193 7.416 5.3079 7.628 5.90082H8.372C8.584 5.3079 9.184 4.87193 9.8 4.87193C10.6 4.87193 11.2 5.52589 11.2 6.39782C11.2 7.65777 9.944 8.90027 8.04 10.7793ZM9.8 4C9.104 4 8.436 4.35313 8 4.90681C7.564 4.35313 6.896 4 6.2 4C4.968 4 4 5.05068 4 6.39782C4 8.04142 5.36 9.38856 7.42 11.4245L8 12L8.58 11.4245C10.64 9.38856 12 8.04142 12 6.39782C12 5.05068 11.032 4 9.8 4Z" fill="#E20749"/>
<path d="M8.04 10.7793L8 10.8229L7.956 10.7793C6.056 8.90027 4.8 7.65777 4.8 6.39782C4.8 5.52589 5.4 4.87193 6.2 4.87193C6.816 4.87193 7.416 5.3079 7.628 5.90082H8.372C8.584 5.3079 9.184 4.87193 9.8 4.87193C10.6 4.87193 11.2 5.52589 11.2 6.39782C11.2 7.65777 9.944 8.90027 8.04 10.7793ZM9.8 4C9.104 4 8.436 4.35313 8 4.90681C7.564 4.35313 6.896 4 6.2 4C4.968 4 4 5.05068 4 6.39782C4 8.04142 5.36 9.38856 7.42 11.4245L8 12L8.58 11.4245C10.64 9.38856 12 8.04142 12 6.39782C12 5.05068 11.032 4 9.8 4Z" stroke="#E20749" stroke-width="0.6" mask="url(#path-4-outside-1)"/>
<path d="M14 14H2V2H14V14ZM14 0H2C1.46957 0 0.960859 0.210714 0.585786 0.585786C0.210714 0.960859 0 1.46957 0 2V14C0 14.5304 0.210714 15.0391 0.585786 15.4142C0.960859 15.7893 1.46957 16 2 16H14C14.5304 16 15.0391 15.7893 15.4142 15.4142C15.7893 15.0391 16 14.5304 16 14V2C16 1.46957 15.7893 0.960859 15.4142 0.585786C15.0391 0.210714 14.5304 0 14 0V0Z" fill="#E20749"/>
</svg>
