<svg width="20" height="20" viewBox="0 0 20 20" fill="none" xmlns="http://www.w3.org/2000/svg">
<rect width="20" height="20" fill="#E5E5E5"/>
<g clip-path="url(#clip0)">
<rect width="375" height="812" transform="translate(-107 -758)" fill="#141414"/>
<rect x="-107" y="-18" width="375" height="72" fill="#121212"/>
<rect x="-4" y="-4" width="28" height="28" rx="3" fill="#141414"/>
<path d="M17.2592 17.2592V2.74073H2.74073V17.2592H17.2592ZM17.2592 0.666656C17.8093 0.666656 18.3369 0.885174 18.7258 1.27414C19.1148 1.6631 19.3333 2.19065 19.3333 2.74073V17.2592C19.3333 17.8093 19.1148 18.3369 18.7258 18.7258C18.3369 19.1148 17.8093 19.3333 17.2592 19.3333H2.74073C2.19065 19.3333 1.6631 19.1148 1.27414 18.7258C0.885174 18.3369 0.666656 17.8093 0.666656 17.2592V2.74073C0.666656 2.19065 0.885174 1.6631 1.27414 1.27414C1.6631 0.885174 2.19065 0.666656 2.74073 0.666656H17.2592ZM14.8741 7.25184L13.837 8.28888L11.7111 6.16295L12.7481 5.12592C12.9659 4.89777 13.3289 4.89777 13.5467 5.12592L14.8741 6.45332C15.1022 6.6711 15.1022 7.03406 14.8741 7.25184ZM4.8148 13.0489L11.0992 6.76443L13.2355 8.90073L6.9511 15.1852H4.8148V13.0489Z" fill="#E20749"/>
</g>
<defs>
<clipPath id="clip0">
<rect width="375" height="812" fill="white" transform="translate(-107 -758)"/>
</clipPath>
</defs>
</svg>
