<svg width="20" height="20" viewBox="0 0 20 20" fill="none" xmlns="http://www.w3.org/2000/svg">
<rect width="20" height="20" fill="#E5E5E5"/>
<g clip-path="url(#clip0)">
<rect width="375" height="812" transform="translate(-37 -758)" fill="#141414"/>
<rect x="-37" y="-18" width="375" height="72" fill="#121212"/>
<rect x="-4" y="-4" width="28" height="28" rx="3" fill="#141414"/>
<path d="M17.2592 17.2593H2.7407V2.74076H17.2592V17.2593ZM17.2592 0.666687H2.7407C2.19062 0.666687 1.66307 0.885205 1.27411 1.27417C0.885144 1.66313 0.666626 2.19068 0.666626 2.74076V17.2593C0.666626 17.8094 0.885144 18.3369 1.27411 18.7259C1.66307 19.1148 2.19062 19.3334 2.7407 19.3334H17.2592C17.8093 19.3334 18.3368 19.1148 18.7258 18.7259C19.1148 18.3369 19.3333 17.8094 19.3333 17.2593V2.74076C19.3333 2.19068 19.1148 1.66313 18.7258 1.27417C18.3368 0.885205 17.8093 0.666687 17.2592 0.666687ZM14.6666 14.4074C14.6666 12.8519 11.5555 12.0741 9.99996 12.0741C8.4444 12.0741 5.33329 12.8519 5.33329 14.4074V15.1852H14.6666V14.4074ZM9.99996 10.2593C10.6188 10.2593 11.2123 10.0134 11.6499 9.57586C12.0875 9.13828 12.3333 8.54479 12.3333 7.92595C12.3333 7.30711 12.0875 6.71362 11.6499 6.27603C11.2123 5.83845 10.6188 5.59261 9.99996 5.59261C9.38112 5.59261 8.78763 5.83845 8.35004 6.27603C7.91246 6.71362 7.66663 7.30711 7.66663 7.92595C7.66663 8.54479 7.91246 9.13828 8.35004 9.57586C8.78763 10.0134 9.38112 10.2593 9.99996 10.2593Z" fill="#E20749"/>
</g>
<defs>
<clipPath id="clip0">
<rect width="375" height="812" fill="white" transform="translate(-37 -758)"/>
</clipPath>
</defs>
</svg>
