<svg xmlns="http://www.w3.org/2000/svg" viewBox="0 0 400.32 400.32"><defs><style>.cls-1{fill:#e20749;}</style></defs><title>instagram-icon2</title><g id="Layer_2" data-name="Layer 2"><g id="Layer_1-2" data-name="Layer 1"><path class="cls-1" d="M200.16,36.08c53.44,0,59.78.2,80.9,1.17,54.24,2.47,79.58,28.2,82.05,82.05,1,21.1,1.15,27.43,1.15,80.88s-.2,59.78-1.15,80.88c-2.49,53.79-27.76,79.58-82.05,82.05-21.12,1-27.42,1.16-80.9,1.16s-59.78-.2-80.88-1.16C64.9,360.62,39.7,334.77,37.23,281c-1-21.1-1.17-27.42-1.17-80.88s.22-59.76,1.17-80.88C39.72,65.45,65,39.7,119.28,37.23,140.4,36.28,146.72,36.08,200.16,36.08Zm0-36.08C145.8,0,139,.23,117.64,1.2,45,4.54,4.55,44.87,1.22,117.63.23,139,0,145.8,0,200.16s.23,61.18,1.2,82.53c3.34,72.69,43.67,113.09,116.43,116.43,21.36,1,28.17,1.2,82.53,1.2s61.18-.23,82.53-1.2c72.63-3.34,113.13-43.67,116.41-116.43,1-21.35,1.22-28.17,1.22-82.53s-.23-61.17-1.2-82.52C395.85,45,355.47,4.55,282.71,1.22,261.34.23,254.52,0,200.16,0Zm0,97.38A102.79,102.79,0,1,0,302.94,200.16,102.78,102.78,0,0,0,200.16,97.38Zm0,169.5a66.72,66.72,0,1,1,66.72-66.72A66.71,66.71,0,0,1,200.16,266.88ZM307,69.31a24,24,0,1,0,24,24A24,24,0,0,0,307,69.31Z"/></g></g></svg>