<svg xmlns="http://www.w3.org/2000/svg" viewBox="0 0 398.42 400.32"><defs><style>.cls-1{fill:#e20749;}</style></defs><title>whatsapp-icon2</title><g id="Layer_2" data-name="Layer 2"><g id="Layer_1-2" data-name="Layer 1"><path class="cls-1" d="M0,400.32l28.14-102.8A198,198,0,0,1,1.67,198.34C1.72,89,90.71,0,200,0A198.42,198.42,0,0,1,398.42,198.53c-.05,109.37-89,198.35-198.38,198.35a198.42,198.42,0,0,1-94.87-24.15Zm110-63.5c28,16.6,54.64,26.54,89.94,26.55,90.87,0,164.89-74,165-164.88a164.84,164.84,0,0,0-164.82-165c-90.94,0-164.92,74-165,164.87,0,37.11,10.86,64.9,29.12,94L47.62,353.18ZM300,245.68c-1.23-2.07-4.53-3.3-9.5-5.79s-29.33-14.48-33.88-16.13-7.84-2.48-11.16,2.49-12.81,16.13-15.7,19.43S224,249.4,219,246.91s-20.93-7.7-39.86-24.6c-14.73-13.14-24.69-29.37-27.58-34.34s-.3-7.64,2.17-10.11c2.24-2.22,5-5.79,7.44-8.69s3.34-4.94,5-8.26.83-6.2-.42-8.69-11.16-26.87-15.28-36.79c-4-9.66-8.12-8.36-11.16-8.51l-9.51-.17A18.18,18.18,0,0,0,116.59,113c-4.53,5-17.34,16.94-17.34,41.35s17.76,48,20.23,51.27,34.94,53.38,84.67,74.84a286.29,286.29,0,0,0,28.25,10.45c11.88,3.77,22.69,3.23,31.23,2,9.52-1.41,29.32-12,33.46-23.56S301.22,247.75,300,245.68Z"/></g></g></svg>