<svg width="16" height="11" viewBox="0 0 16 11" fill="none" xmlns="http://www.w3.org/2000/svg">
<rect width="16" height="11" fill="#E5E5E5"/>
<rect width="1440" height="6241" transform="translate(-1289 -353)" fill="#EFEFEF"/>
<rect x="-1289" y="-353" width="1440" height="868" fill="#141414"/>
<path d="M-1289 -353H151V261H-1289V-353Z" fill="#121212"/>
<g clip-path="url(#clip0)">
<path d="M4.64042 0.0763092C5.11142 0.0763092 5.53524 0.117092 5.92388 0.200257C6.31011 0.282621 6.63957 0.418563 6.91785 0.606483C7.19213 0.794403 7.40644 1.0439 7.56078 1.35736C7.71031 1.66683 7.78468 2.05387 7.78468 2.51127C7.78468 3.00706 7.67273 3.42128 7.44803 3.75154C7.22172 4.0826 6.88826 4.35369 6.44365 4.5632C7.049 4.73832 7.4976 5.04459 7.79508 5.47961C8.09415 5.91862 8.24049 6.44399 8.24049 7.05973C8.24049 7.55952 8.14533 7.98894 7.95421 8.34958C7.77004 8.70486 7.50285 9.01045 7.17534 9.2404C6.8361 9.47663 6.45717 9.64998 6.05662 9.75218C5.63665 9.86243 5.20416 9.9178 4.76997 9.91692H0V0.0763092H4.64042ZM4.35974 4.05221C4.74358 4.05221 5.06184 3.96105 5.31294 3.77633C5.56243 3.59401 5.68318 3.29334 5.68318 2.88151C5.68318 2.65281 5.6424 2.46409 5.56243 2.31615C5.48452 2.17383 5.36922 2.05549 5.22897 1.9739C5.08218 1.88684 4.92017 1.82849 4.75157 1.80197C4.56781 1.7677 4.38114 1.75136 4.19421 1.75319H2.16708V4.05221H4.35974ZM4.48049 8.24163C4.694 8.24163 4.89711 8.22324 5.08823 8.18006C5.28095 8.13847 5.45208 8.0713 5.59761 7.97134C5.74315 7.87539 5.8631 7.74504 5.94946 7.57871C6.03663 7.41398 6.07901 7.19887 6.07901 6.94058C6.07901 6.4336 5.93587 6.07295 5.65279 5.85465C5.36891 5.63874 4.98827 5.53158 4.52207 5.53158H2.16708V8.24243H4.48049V8.24163ZM11.3296 8.20884C11.623 8.49512 12.0461 8.63906 12.5962 8.63906C12.9905 8.63906 13.3311 8.5391 13.6182 8.34079C13.9013 8.14167 14.074 7.92896 14.1404 7.70906H15.8636C15.587 8.56629 15.1671 9.17883 14.593 9.54747C14.026 9.91772 13.3359 10.1016 12.5299 10.1016C11.9685 10.1016 11.4631 10.0113 11.0105 9.83215C10.5761 9.66297 10.1835 9.40161 9.8598 9.06608C9.54145 8.72273 9.29535 8.3189 9.13611 7.87858C8.96106 7.39168 8.8744 6.87741 8.88021 6.36003C8.88021 5.82746 8.96898 5.32927 9.1433 4.86947C9.30879 4.425 9.56289 4.01881 9.89019 3.67558C10.214 3.33972 10.5979 3.07503 11.0449 2.88071C11.515 2.68302 12.0208 2.58447 12.5307 2.59124C13.1336 2.59124 13.6606 2.70799 14.1132 2.94309C14.5521 3.16751 14.9327 3.49113 15.2247 3.88828C15.515 4.28252 15.7221 4.73432 15.8508 5.24051C15.9796 5.74589 16.0244 6.27367 15.9876 6.82623H10.845C10.8458 7.38919 11.0353 7.92257 11.3296 8.20884ZM13.5782 4.46564C13.3455 4.20815 12.9521 4.06901 12.4707 4.06901C12.158 4.06901 11.8997 4.12099 11.6918 4.22814C11.5017 4.32416 11.3331 4.45773 11.196 4.62077C11.0757 4.7688 10.9865 4.93961 10.9337 5.12296C10.8876 5.27584 10.8579 5.43319 10.845 5.59236H14.0292C13.9828 5.09337 13.8117 4.72473 13.5782 4.46564ZM10.4451 0.736828H14.4346V1.70841H10.4451V0.736828Z" fill="#F7F7F7"/>
</g>
<defs>
<clipPath id="clip0">
<rect width="16" height="221.396" fill="white" transform="translate(0 -159)"/>
</clipPath>
</defs>
</svg>
