<svg width="16" height="16" viewBox="0 0 16 16" fill="none" xmlns="http://www.w3.org/2000/svg">
<rect width="16" height="16" fill="#E5E5E5"/>
<rect width="1440" height="6241" transform="translate(-1289 -247)" fill="#EFEFEF"/>
<rect x="-1289" y="-247" width="1440" height="868" fill="#141414"/>
<path d="M-1289 -247H151V367H-1289V-247Z" fill="#121212"/>
<g clip-path="url(#clip0)">
<path d="M14.928 3.984C14.2299 2.77418 13.2252 1.76977 12.0152 1.072C10.7888 0.3576 9.4504 0 8 0C6.5496 0 5.2112 0.3576 3.984 1.072C2.7576 1.7864 1.7864 2.7576 1.072 3.984C0.3576 5.2104 0 6.5496 0 8C0 9.4504 0.3568 10.7896 1.072 12.016C1.76986 13.226 2.7746 14.2305 3.9848 14.928C5.2112 15.6424 6.5496 16 8 16C9.4504 16 10.7888 15.6424 12.016 14.928C13.226 14.2302 14.2307 13.2258 14.9288 12.016C15.6432 10.7896 16 9.4504 16 8C16 6.5496 15.6432 5.2104 14.928 3.984ZM8 1.328C9.6 1.328 11.0176 1.84 12.256 2.8632C11.52 3.8024 10.4272 4.5752 8.976 5.1832C8.1744 3.7328 7.3056 2.5216 6.3672 1.5512C6.89904 1.40415 7.4482 1.32908 8 1.328ZM2.808 3.84C3.39299 3.09714 4.13317 2.49102 4.9768 2.064C5.9464 3.0248 6.8368 4.224 7.6488 5.664C6.0488 6.144 4.3576 6.384 2.576 6.384C2.1176 6.384 1.7712 6.3736 1.536 6.352C1.78118 5.4355 2.21436 4.58005 2.808 3.84ZM1.328 8C1.328 7.9568 1.3304 7.904 1.336 7.84C1.3416 7.776 1.344 7.7232 1.344 7.68C1.5472 7.6912 1.8568 7.696 2.2728 7.696C4.4056 7.696 6.3896 7.4024 8.224 6.816C8.3736 7.1144 8.5288 7.4504 8.688 7.824C7.632 8.0584 6.5488 8.6288 5.4392 9.536C4.3296 10.4432 3.52 11.3976 3.008 12.4C1.888 11.1304 1.328 9.664 1.328 8ZM8 14.672C6.4848 14.672 5.1248 14.2024 3.9192 13.2648C4.4 12.3152 5.1384 11.4072 6.136 10.544C7.1328 9.68 8.1224 9.1416 9.104 8.928C9.7232 10.6392 10.142 12.4164 10.352 14.224C9.60229 14.517 8.8049 14.6688 8 14.672ZM13.664 11.504C13.1404 12.3476 12.4353 13.0639 11.6 13.6008C11.408 11.9368 11.04 10.3152 10.4968 8.736C11.2424 8.6832 11.9088 8.656 12.4968 8.656C13.136 8.656 13.8456 8.6832 14.624 8.736C14.5196 9.71987 14.1912 10.6667 13.664 11.504ZM12.672 7.504C11.744 7.504 10.8856 7.5416 10.096 7.616C9.92875 7.17822 9.74732 6.746 9.552 6.32C11.2048 5.5952 12.3776 4.7152 13.0712 3.68C14.0312 4.8112 14.5544 6.1016 14.6392 7.552C13.9896 7.52 13.3336 7.504 12.672 7.504Z" fill="#F7F7F7"/>
</g>
<defs>
<clipPath id="clip0">
<rect width="16" height="221.396" fill="white" transform="translate(0 -53)"/>
</clipPath>
</defs>
</svg>
