<svg width="16" height="16" viewBox="0 0 16 16" fill="none" xmlns="http://www.w3.org/2000/svg">
<rect width="16" height="16" fill="#E5E5E5"/>
<rect width="1440" height="6241" transform="translate(-1289 -194)" fill="#EFEFEF"/>
<rect x="-1289" y="-194" width="1440" height="868" fill="#141414"/>
<path d="M-1289 -194H151V420H-1289V-194Z" fill="#121212"/>
<g clip-path="url(#clip0)">
<path d="M12.2706 4.68933C12.8008 4.68933 13.2306 4.25952 13.2306 3.72933C13.2306 3.19913 12.8008 2.76933 12.2706 2.76933C11.7404 2.76933 11.3106 3.19913 11.3106 3.72933C11.3106 4.25952 11.7404 4.68933 12.2706 4.68933Z" fill="#F7F7F7"/>
<path d="M8.00001 3.89201C7.18752 3.89201 6.39328 4.13294 5.71773 4.58433C5.04217 5.03572 4.51564 5.67731 4.20471 6.42795C3.89379 7.17858 3.81244 8.00457 3.97094 8.80144C4.12945 9.59831 4.5207 10.3303 5.09522 10.9048C5.66973 11.4793 6.40171 11.8706 7.19858 12.0291C7.99545 12.1876 8.82143 12.1062 9.57207 11.7953C10.3227 11.4844 10.9643 10.9578 11.4157 10.2823C11.8671 9.60673 12.108 8.81249 12.108 8.00001C12.108 6.9105 11.6752 5.86561 10.9048 5.09521C10.1344 4.32481 9.08952 3.89201 8.00001 3.89201ZM8.00001 10.6667C7.47259 10.6667 6.95702 10.5103 6.51849 10.2173C6.07996 9.92424 5.73816 9.50777 5.53633 9.0205C5.3345 8.53323 5.28169 7.99705 5.38458 7.47977C5.48748 6.96248 5.74145 6.48733 6.11439 6.11439C6.48733 5.74145 6.96249 5.48747 7.47977 5.38458C7.99705 5.28169 8.53323 5.3345 9.0205 5.53633C9.50777 5.73816 9.92425 6.07996 10.2173 6.51849C10.5103 6.95702 10.6667 7.47259 10.6667 8.00001C10.6667 8.70725 10.3857 9.38553 9.88563 9.88563C9.38553 10.3857 8.70725 10.6667 8.00001 10.6667Z" fill="#F7F7F7"/>
<path d="M8 1.44133C10.136 1.44133 10.3893 1.44933 11.2327 1.488C11.7399 1.49402 12.2423 1.58715 12.718 1.76333C13.0631 1.89646 13.3765 2.10036 13.6381 2.36192C13.8996 2.62348 14.1035 2.93689 14.2367 3.282C14.4128 3.75769 14.506 4.26011 14.512 4.76733C14.5507 5.61067 14.5587 5.864 14.5587 8.00067C14.5587 10.1373 14.5507 10.3893 14.512 11.2327C14.506 11.7399 14.4128 12.2423 14.2367 12.718C14.1035 13.0631 13.8996 13.3765 13.6381 13.6381C13.3765 13.8996 13.0631 14.1035 12.718 14.2367C12.2423 14.4128 11.7399 14.506 11.2327 14.512C10.3893 14.5507 10.136 14.5587 8 14.5587C5.864 14.5587 5.61067 14.5507 4.76733 14.512C4.26011 14.506 3.75769 14.4128 3.282 14.2367C2.93689 14.1035 2.62348 13.8996 2.36192 13.6381C2.10036 13.3765 1.89646 13.0631 1.76333 12.718C1.58715 12.2423 1.49402 11.7399 1.488 11.2327C1.44933 10.3893 1.44133 10.136 1.44133 8C1.44133 5.864 1.44933 5.61067 1.488 4.76733C1.49402 4.26011 1.58715 3.75769 1.76333 3.282C1.89646 2.93689 2.10036 2.62348 2.36192 2.36192C2.62348 2.10036 2.93689 1.89646 3.282 1.76333C3.75769 1.58715 4.26011 1.49402 4.76733 1.488C5.61067 1.44933 5.864 1.44133 8 1.44133ZM8 0C5.82733 0 5.55467 0.00933335 4.70133 0.048C4.03785 0.0613974 3.38144 0.18718 2.76 0.42C2.22848 0.625532 1.74577 0.939852 1.34281 1.34281C0.939852 1.74577 0.625532 2.22848 0.42 2.76C0.187106 3.38165 0.0613222 4.03829 0.048 4.702C0.00933335 5.55533 0 5.82667 0 8C0 10.1733 0.00933335 10.4453 0.048 11.2987C0.0613974 11.9622 0.18718 12.6186 0.42 13.24C0.625532 13.7715 0.939852 14.2542 1.34281 14.6572C1.74577 15.0601 2.22848 15.3745 2.76 15.58C3.38165 15.8129 4.03829 15.9387 4.702 15.952C5.55533 15.9907 5.82733 16 8 16C10.1727 16 10.4453 15.9907 11.2987 15.952C11.9624 15.9387 12.619 15.8129 13.2407 15.58C13.7722 15.3745 14.2549 15.0601 14.6579 14.6572C15.0608 14.2542 15.3751 13.7715 15.5807 13.24C15.8133 12.6183 15.9389 11.9617 15.952 11.298C15.9907 10.4447 16 10.1733 16 8C16 5.82667 15.9907 5.55467 15.952 4.70133C15.9386 4.03785 15.8128 3.38144 15.58 2.76C15.3745 2.22848 15.0601 1.74577 14.6572 1.34281C14.2542 0.939852 13.7715 0.625532 13.24 0.42C12.6183 0.187333 11.9617 0.0617754 11.298 0.0486666C10.4447 0.00866664 10.1733 0 8 0Z" fill="#F7F7F7"/>
</g>
<defs>
<clipPath id="clip0">
<rect width="16" height="221.396" fill="white"/>
</clipPath>
</defs>
</svg>
