<svg width="16" height="16" viewBox="0 0 16 16" fill="none" xmlns="http://www.w3.org/2000/svg">
<rect width="16" height="16" fill="#E5E5E5"/>
<rect width="1440" height="6241" transform="translate(-1289 -400)" fill="#EFEFEF"/>
<rect x="-1289" y="-400" width="1440" height="868" fill="#141414"/>
<path d="M-1289 -400H151V214H-1289V-400Z" fill="#121212"/>
<g clip-path="url(#clip0)">
<path d="M3.63213 15.3957V5.07681H0.202355V15.3957H3.63213ZM1.91768 3.6671C3.11371 3.6671 3.85817 2.87473 3.85817 1.88454C3.83589 0.872013 3.11375 0.101639 1.94038 0.101639C0.767193 0.101639 0 0.872028 0 1.88454C0 2.87478 0.744282 3.6671 1.89529 3.6671H1.91758H1.91768ZM5.53049 15.3957H8.96027V9.6331C8.96027 9.3247 8.98255 9.01662 9.07312 8.79615C9.32106 8.17998 9.8854 7.54179 10.8328 7.54179C12.0739 7.54179 12.5704 8.48806 12.5704 9.87522V15.3956H16V9.47885C16 6.30931 14.3079 4.83455 12.0513 4.83455C10.2011 4.83455 9.38876 5.86876 8.93745 6.57316H8.96034V5.07659H5.53057C5.57558 6.04486 5.53057 15.3954 5.53057 15.3954L5.53049 15.3957Z" fill="#F7F7F7"/>
</g>
<defs>
<clipPath id="clip0">
<rect width="16" height="221.396" fill="white" transform="translate(0 -206)"/>
</clipPath>
</defs>
</svg>
