<svg xmlns="http://www.w3.org/2000/svg" width="16" height="12.695" viewBox="0 0 16 12.695">
  <path id="medium-icon" d="M2.894,7.09a.624.624,0,0,0-.2-.523L1.2,4.768V4.5H5.838l3.586,7.863L12.576,4.5H17v.268L15.722,5.992a.373.373,0,0,0-.142.357v9a.373.373,0,0,0,.142.357l1.247,1.224V17.2H10.694v-.268l1.293-1.254c.126-.126.126-.165.126-.357V8.046l-3.6,9.126H8.031L3.85,8.046v6.116a.833.833,0,0,0,.232.7L5.762,16.9v.268H1V16.9l1.68-2.041a.806.806,0,0,0,.215-.7Z" transform="translate(-0.998 -4.5)" fill="#fbfbff"/>
</svg>
