<svg width="16" height="17" viewBox="0 0 16 17" fill="none" xmlns="http://www.w3.org/2000/svg">
<rect width="16" height="17" fill="#E5E5E5"/>
<rect width="1440" height="6241" transform="translate(-1289 -300)" fill="#EFEFEF"/>
<rect x="-1289" y="-300" width="1440" height="868" fill="#141414"/>
<path d="M-1289 -300H151V314H-1289V-300Z" fill="#121212"/>
<g clip-path="url(#clip0)">
<path fill-rule="evenodd" clip-rule="evenodd" d="M13.6687 2.33657C12.9307 1.59371 12.0527 1.00467 11.0854 0.603595C10.1181 0.202516 9.08084 -0.00263581 8.03371 2.55655e-05C3.64281 2.55655e-05 0.0683305 3.57362 0.0665556 7.96629C0.0665556 9.37017 0.433055 10.7403 1.12967 11.949L0 16.0763L4.22318 14.9679C5.39135 15.6039 6.70011 15.9373 8.03016 15.9379H8.03371C12.4237 15.9379 15.9982 12.3643 16 7.97161C16.003 6.9249 15.7985 5.88797 15.3984 4.92076C14.9982 3.95354 14.4104 3.07522 13.6687 2.33657ZM8.03371 14.5935H8.03104C6.84504 14.5936 5.68086 14.2745 4.66067 13.6697L4.41929 13.5259L1.91325 14.1835L2.58147 11.7404L2.4244 11.4902C1.76132 10.4345 1.4103 9.2129 1.41187 7.96629C1.41364 4.31549 4.3838 1.34534 8.03637 1.34534C8.90625 1.3434 9.76788 1.51402 10.5714 1.8473C11.3749 2.18058 12.1043 2.66992 12.7174 3.28699C13.3339 3.90111 13.8224 4.63131 14.1549 5.4354C14.4875 6.23948 14.6573 7.10149 14.6547 7.97161C14.6529 11.6224 11.6827 14.5935 8.03371 14.5935ZM11.6659 9.63373C11.4662 9.53345 10.4883 9.05248 10.3055 8.98592C10.1236 8.91936 9.99133 8.88653 9.85822 9.08531C9.72511 9.28409 9.34352 9.73223 9.22727 9.86534C9.11102 9.99845 8.99477 10.0144 8.79599 9.91504C8.59721 9.81565 7.95561 9.60533 7.1951 8.92735C6.6032 8.39934 6.20387 7.74798 6.08762 7.54832C5.97137 7.34865 6.0752 7.24128 6.17547 7.14189C6.2651 7.05314 6.37425 6.90938 6.47364 6.79313C6.57303 6.67688 6.60587 6.59436 6.67242 6.46124C6.73898 6.32813 6.70614 6.21188 6.65556 6.11249C6.60587 6.01221 6.20742 5.03252 6.04147 4.63407C5.88085 4.24805 5.71668 4.29952 5.59422 4.29419C5.46739 4.28901 5.34046 4.28664 5.21352 4.28709C5.11258 4.28967 5.01327 4.31306 4.9218 4.35582C4.83033 4.39858 4.74868 4.45977 4.68196 4.53557C4.49916 4.73523 3.98535 5.21621 3.98535 6.19591C3.98535 7.17561 4.69883 8.12247 4.79821 8.25558C4.8976 8.38869 6.2021 10.3987 8.19876 11.2612C8.67441 11.4662 9.04535 11.5887 9.33376 11.681C9.8103 11.8327 10.2442 11.8105 10.5877 11.76C10.9701 11.7032 11.7653 11.279 11.9312 10.814C12.0971 10.349 12.0971 9.95053 12.0475 9.86712C11.9978 9.7837 11.8638 9.73312 11.6659 9.63373Z" fill="#F7F7F7"/>
</g>
<defs>
<clipPath id="clip0">
<rect width="16" height="221.396" fill="white" transform="translate(0 -106)"/>
</clipPath>
</defs>
</svg>
